<svg xmlns="http://www.w3.org/2000/svg" viewBox="206 -206 512 512" width="512" height="512"><path d="M706.3-133.7c-1-2.3-2.1-4.7-3.3-7-10.4-19-25.4-35-43.6-46.3-19.2-11.9-41.8-19-66.1-19H330.7c-18.8 0-36.3 4.1-52.4 11.7-2.3 1-4.7 2.1-7 3.3-19 10.4-35 25.4-46.3 43.6-11.9 19.2-19 41.8-19 66.1v262.6c0 13.5 2.1 26.6 6.3 38.9C228.5 270 275.4 306 330.7 306h262.6c59.6 0 109.6-42 121.7-97.9v-.2c2-8.6 2.9-17.4 2.9-26.6V-81.3c.1-18.8-4-36.4-11.6-52.4zM462 210.2c-87.9 0-160.2-72.3-160.2-160.2S374.1-110.2 462-110.2c89.9 0 160.2 72.3 160.2 160.2S549.9 210.2 462 210.2zM630.1-79c-19.5 0-37.1-15.6-37.1-37.1 0-19.5 15.6-37.1 37.1-37.1 19.5 0 37.1 15.6 37.1 37.1 0 19.5-15.6 37.1-37.1 37.1zM462-53.6C405.3-53.6 358.4-6.7 358.4 50c0 56.7 46.9 103.6 103.6 103.6 56.7 0 103.6-46.9 103.6-103.6 0-56.7-46.9-103.6-103.6-103.6z" fill="#f7f7f7"/></svg>