<?xml version="1.0" encoding="UTF-8"?>
<!DOCTYPE svg PUBLIC "-//W3C//DTD SVG 1.1//EN" "http://www.w3.org/Graphics/SVG/1.1/DTD/svg11.dtd">
<svg xmlns="http://www.w3.org/2000/svg" version="1.1" width="199px" height="235px" style="shape-rendering:geometricPrecision; text-rendering:geometricPrecision; image-rendering:optimizeQuality; fill-rule:evenodd; clip-rule:evenodd" xmlns:xlink="http://www.w3.org/1999/xlink">
<g><path style="opacity:1" fill="#39601f" d="M 86.5,2.5 C 87.209,1.59603 88.209,1.26269 89.5,1.5C 89.7947,3.73535 89.4614,5.73535 88.5,7.5C 88.9227,5.21879 88.256,3.55213 86.5,2.5 Z"/></g>
<g><path style="opacity:1" fill="#7eb45c" d="M 78.5,51.5 C 78.1667,51.5 77.8333,51.5 77.5,51.5C 77.1667,51.5 76.8333,51.5 76.5,51.5C 76.5,35.5 76.5,19.5 76.5,3.5C 77.1174,3.38929 77.6174,3.05596 78,2.5C 78.4999,18.8299 78.6666,35.1633 78.5,51.5 Z"/></g>
<g><path style="opacity:1" fill="#5c8340" d="M 111.5,11.5 C 111.657,10.1266 111.49,8.79323 111,7.5C 110.617,8.05596 110.117,8.38929 109.5,8.5C 109.5,8.16667 109.5,7.83333 109.5,7.5C 110.077,5.34837 111.244,5.01504 113,6.5C 113.203,8.3908 112.703,10.0575 111.5,11.5 Z"/></g>
<g><path style="opacity:1" fill="#86bb5e" d="M 86.5,2.5 C 88.256,3.55213 88.9227,5.21879 88.5,7.5C 88.5,8.16667 88.8333,8.5 89.5,8.5C 89.5,10.8333 89.5,13.1667 89.5,15.5C 89.1667,15.5 88.8333,15.5 88.5,15.5C 86.9823,22.7738 85.9823,32.7738 85.5,45.5C 84.1667,45.5 83.5,44.8333 83.5,43.5C 84.014,37.1783 84.3473,30.845 84.5,24.5C 84.6716,23.5084 84.3382,22.8417 83.5,22.5C 83.5,22.1667 83.5,21.8333 83.5,21.5C 84.3382,21.1583 84.6716,20.4916 84.5,19.5C 85.4614,17.7354 85.7947,15.7354 85.5,13.5C 85.185,9.62859 85.5184,5.96192 86.5,2.5 Z"/></g>
<g><path style="opacity:1" fill="#79ac4f" d="M 97.5,13.5 C 96.8333,15.5 96.1667,17.5 95.5,19.5C 95.1583,18.6618 94.4916,18.3284 93.5,18.5C 93.366,16.7085 93.6993,15.0418 94.5,13.5C 94.7244,9.82116 95.0578,6.1545 95.5,2.5C 96.5,2.5 97.5,2.5 98.5,2.5C 98.577,6.21481 98.2436,9.88147 97.5,13.5 Z"/></g>
<g><path style="opacity:1" fill="#406428" d="M 81.5,2.5 C 82.209,1.59603 83.209,1.26269 84.5,1.5C 84.1832,5.70159 84.5166,9.70159 85.5,13.5C 85.7947,15.7354 85.4614,17.7354 84.5,19.5C 84.5,18.8333 84.5,18.1667 84.5,17.5C 84.6716,16.5084 84.3382,15.8417 83.5,15.5C 84.0969,10.706 83.4302,6.37267 81.5,2.5 Z"/></g>
<g><path style="opacity:1" fill="#1e5007" d="M 103.5,6.5 C 103.263,7.79105 103.596,8.79105 104.5,9.5C 103.121,15.6924 101.455,21.6924 99.5,27.5C 99.8811,20.1964 101.214,13.1964 103.5,6.5 Z"/></g>
<g><path style="opacity:1" fill="#7fb456" d="M 111.5,11.5 C 111.5,12.1667 111.5,12.8333 111.5,13.5C 109.299,19.4372 107.299,25.4372 105.5,31.5C 104.833,31.5 104.167,31.5 103.5,31.5C 105.343,23.7945 107.343,16.1278 109.5,8.5C 110.117,8.38929 110.617,8.05596 111,7.5C 111.49,8.79323 111.657,10.1266 111.5,11.5 Z"/></g>
<g><path style="opacity:1" fill="#245709" d="M 97.5,13.5 C 97.3284,14.4916 97.6618,15.1583 98.5,15.5C 98.2453,19.8003 97.2453,23.8003 95.5,27.5C 95.5,24.8333 95.5,22.1667 95.5,19.5C 96.1667,17.5 96.8333,15.5 97.5,13.5 Z"/></g>
<g><path style="opacity:1" fill="#316214" d="M 127.5,15.5 C 122.969,24.5664 118.969,33.8998 115.5,43.5C 114.5,44.8333 113.5,46.1667 112.5,47.5C 112.5,46.5 112.5,45.5 112.5,44.5C 117.491,34.3829 121.824,23.8829 125.5,13C 125.164,11.9701 124.497,11.4701 123.5,11.5C 124.742,9.10819 126.075,9.27485 127.5,12C 126.209,13.2917 126.209,14.4583 127.5,15.5 Z"/></g>
<g><path style="opacity:1" fill="#76ab4d" d="M 121.5,12.5 C 118.322,20.8621 114.988,29.1955 111.5,37.5C 111.19,36.2617 110.69,36.2617 110,37.5C 109.059,39.7274 107.892,41.7274 106.5,43.5C 106.963,40.779 107.629,38.1123 108.5,35.5C 108.833,35.5 109.167,35.5 109.5,35.5C 112.346,29.7901 114.68,23.7901 116.5,17.5C 117.371,14.8877 118.037,12.221 118.5,9.5C 121.833,8.16667 122.833,9.16667 121.5,12.5 Z"/></g>
<g><path style="opacity:1" fill="#21510c" d="M 128.5,13.5 C 129.209,12.596 130.209,12.2627 131.5,12.5C 131.263,13.791 131.596,14.791 132.5,15.5C 130.243,19.6829 128.243,24.0162 126.5,28.5C 125.833,28.5 125.5,28.1667 125.5,27.5C 126.976,23.0673 128.643,18.734 130.5,14.5C 130.043,13.7025 129.376,13.3691 128.5,13.5 Z"/></g>
<g><path style="opacity:1" fill="#285b0e" d="M 121.5,12.5 C 121.328,13.4916 121.662,14.1583 122.5,14.5C 118.99,24.1944 115.323,33.861 111.5,43.5C 111.167,43.5 110.833,43.5 110.5,43.5C 110.517,41.4352 110.85,39.4352 111.5,37.5C 114.988,29.1955 118.322,20.8621 121.5,12.5 Z"/></g>
<g><path style="opacity:1" fill="#7cb250" d="M 103.5,6.5 C 101.214,13.1964 99.8811,20.1964 99.5,27.5C 97.8531,32.0894 96.5197,36.7561 95.5,41.5C 95.0623,40.4937 94.3957,40.4937 93.5,41.5C 94.5984,36.9077 95.2651,32.241 95.5,27.5C 97.2453,23.8003 98.2453,19.8003 98.5,15.5C 98.8897,12.1606 99.3897,8.82728 100,5.5C 100.71,4.02674 101.876,3.36007 103.5,3.5C 103.5,4.5 103.5,5.5 103.5,6.5 Z"/></g>
<g><path style="opacity:1" fill="#235707" d="M 111.5,13.5 C 111.328,14.4916 111.662,15.1583 112.5,15.5C 110.223,21.727 108.223,28.0603 106.5,34.5C 106.5,34.8333 106.5,35.1667 106.5,35.5C 105.566,34.4324 105.232,33.099 105.5,31.5C 107.299,25.4372 109.299,19.4372 111.5,13.5 Z"/></g>
<g><path style="opacity:1" fill="#295c0f" d="M 93.5,7.5 C 93.2053,9.73535 93.5386,11.7354 94.5,13.5C 93.6993,15.0418 93.366,16.7085 93.5,18.5C 92.5,25.8332 91.5,33.1666 90.5,40.5C 89.8333,40.5 89.5,40.1667 89.5,39.5C 90.3352,28.6329 91.6685,17.9662 93.5,7.5 Z"/></g>
<g><path style="opacity:1" fill="#7cb350" d="M 105.5,5.5 C 106.693,5.97041 107.36,6.97041 107.5,8.5C 104.958,19.2143 102.291,29.8809 99.5,40.5C 98.8333,41.1667 98.1667,41.8333 97.5,42.5C 98.4258,37.5368 99.0925,32.5368 99.5,27.5C 101.455,21.6924 103.121,15.6924 104.5,9.5C 104.232,7.90097 104.566,6.56764 105.5,5.5 Z"/></g>
<g><path style="opacity:1" fill="#7ab051" d="M 118.5,9.5 C 117.13,11.2504 116.13,13.2504 115.5,15.5C 112.59,21.7873 110.59,28.4539 109.5,35.5C 109.167,35.5 108.833,35.5 108.5,35.5C 108.591,33.3023 107.925,32.9689 106.5,34.5C 108.223,28.0603 110.223,21.727 112.5,15.5C 112.613,12.3136 113.78,9.64693 116,7.5C 117.301,7.63874 118.134,8.30541 118.5,9.5 Z"/></g>
<g><path style="opacity:1" fill="#7eb753" d="M 93.5,7.5 C 91.6685,17.9662 90.3352,28.6329 89.5,39.5C 88.7776,43.3908 87.9443,47.3908 87,51.5C 86.51,50.2068 86.3433,48.8734 86.5,47.5C 87.4189,37.1504 88.4189,26.8171 89.5,16.5C 89.5,16.1667 89.5,15.8333 89.5,15.5C 89.5,13.1667 89.5,10.8333 89.5,8.5C 90.4614,6.73535 90.7947,4.73535 90.5,2.5C 91.8333,2.5 93.1667,2.5 94.5,2.5C 94.3713,4.2161 94.038,5.88277 93.5,7.5 Z"/></g>
<g><path style="opacity:1" fill="#538f2a" d="M 80.5,27.5 C 80.6911,35.2011 80.3577,42.8678 79.5,50.5C 79.5,51.1667 79.1667,51.5 78.5,51.5C 78.6666,35.1633 78.4999,18.8299 78,2.5C 77.6174,3.05596 77.1174,3.38929 76.5,3.5C 76.8212,1.95186 77.8212,1.28519 79.5,1.5C 79.1736,10.3494 79.507,19.0161 80.5,27.5 Z"/></g>
<g><path style="opacity:1" fill="#23570b" d="M 115.5,15.5 C 115.328,16.4916 115.662,17.1583 116.5,17.5C 114.68,23.7901 112.346,29.7901 109.5,35.5C 110.59,28.4539 112.59,21.7873 115.5,15.5 Z"/></g>
<g><path style="opacity:1" fill="#42781a" d="M 83.5,19.5 C 83.5,20.1667 83.5,20.8333 83.5,21.5C 83.5,21.8333 83.5,22.1667 83.5,22.5C 83.3284,23.4916 83.6618,24.1583 84.5,24.5C 84.3473,30.845 84.014,37.1783 83.5,43.5C 83.1667,43.5 82.8333,43.5 82.5,43.5C 82.1743,35.3159 82.5076,27.3159 83.5,19.5 Z"/></g>
<g><path style="opacity:1" fill="#265a09" d="M 105.5,5.5 C 106.209,4.59603 107.209,4.26269 108.5,4.5C 108.263,5.79105 108.596,6.79105 109.5,7.5C 109.5,7.83333 109.5,8.16667 109.5,8.5C 107.343,16.1278 105.343,23.7945 103.5,31.5C 102.651,35.5505 101.485,39.5505 100,43.5C 99.5172,42.552 99.3505,41.552 99.5,40.5C 102.291,29.8809 104.958,19.2143 107.5,8.5C 107.36,6.97041 106.693,5.97041 105.5,5.5 Z"/></g>
<g><path style="opacity:1" fill="#32680f" d="M 88.5,15.5 C 88.5,16.1667 88.8333,16.5 89.5,16.5C 88.4189,26.8171 87.4189,37.1504 86.5,47.5C 85.6618,47.1583 85.3284,46.4916 85.5,45.5C 85.9823,32.7738 86.9823,22.7738 88.5,15.5 Z"/></g>
<g><path style="opacity:1" fill="#225207" d="M 135.5,17.5 C 135.5,18.1667 135.833,18.5 136.5,18.5C 134.075,23.6857 131.409,28.6857 128.5,33.5C 127.833,33.5 127.5,33.1667 127.5,32.5C 129.418,27.0598 132.085,22.0598 135.5,17.5 Z"/></g>
<g><path style="opacity:1" fill="#80b756" d="M 128.5,13.5 C 129.376,13.3691 130.043,13.7025 130.5,14.5C 128.643,18.734 126.976,23.0673 125.5,27.5C 122.005,33.1557 119.005,39.1557 116.5,45.5C 115.662,45.1583 115.328,44.4916 115.5,43.5C 118.969,33.8998 122.969,24.5664 127.5,15.5C 127.328,14.5084 127.662,13.8417 128.5,13.5 Z"/></g>
<g><path style="opacity:1" fill="#81b756" d="M 123.5,11.5 C 124.497,11.4701 125.164,11.9701 125.5,13C 121.824,23.8829 117.491,34.3829 112.5,44.5C 111.833,44.5 111.5,44.1667 111.5,43.5C 115.323,33.861 118.99,24.1944 122.5,14.5C 122.557,13.391 122.89,12.391 123.5,11.5 Z"/></g>
<g><path style="opacity:1" fill="#82b75a" d="M 135.5,17.5 C 132.085,22.0598 129.418,27.0598 127.5,32.5C 124.801,36.2367 122.467,40.2367 120.5,44.5C 119.833,44.5 119.5,44.1667 119.5,43.5C 121.562,38.3752 123.896,33.3752 126.5,28.5C 128.243,24.0162 130.243,19.6829 132.5,15.5C 133.209,14.596 134.209,14.2627 135.5,14.5C 135.5,15.5 135.5,16.5 135.5,17.5 Z"/></g>
<g><path style="opacity:1" fill="#1f4b0a" d="M 151.5,25.5 C 152.74,26.6588 154.074,27.6588 155.5,28.5C 151.565,30.4344 148.565,33.4344 146.5,37.5C 145.662,37.1583 145.328,36.4916 145.5,35.5C 147.89,32.4338 149.89,29.1004 151.5,25.5 Z"/></g>
<g><path style="opacity:1" fill="#86bc5b" d="M 146.5,26.5 C 139.092,37.6373 131.426,48.6373 123.5,59.5C 123.167,59.5 122.833,59.5 122.5,59.5C 123.738,56.2622 125.404,53.2622 127.5,50.5C 133.255,41.3197 139.255,32.3197 145.5,23.5C 146.386,24.325 146.719,25.325 146.5,26.5 Z"/></g>
<g><path style="opacity:1" fill="#7cb456" d="M 81.5,2.5 C 83.4302,6.37267 84.0969,10.706 83.5,15.5C 83.3284,16.4916 83.6618,17.1583 84.5,17.5C 84.5,18.1667 84.5,18.8333 84.5,19.5C 84.1667,19.5 83.8333,19.5 83.5,19.5C 82.5076,27.3159 82.1743,35.3159 82.5,43.5C 82.5358,46.461 81.5358,48.7943 79.5,50.5C 80.3577,42.8678 80.6911,35.2011 80.5,27.5C 80.1739,18.9832 80.5073,10.6499 81.5,2.5 Z"/></g>
<g><path style="opacity:1" fill="#73af47" d="M 103.5,31.5 C 104.167,31.5 104.833,31.5 105.5,31.5C 105.232,33.099 105.566,34.4324 106.5,35.5C 104.374,41.045 102.541,46.7117 101,52.5C 96.7684,56.032 94.935,55.032 95.5,49.5C 95.7215,46.9327 96.3882,44.5994 97.5,42.5C 98.1667,41.8333 98.8333,41.1667 99.5,40.5C 99.3505,41.552 99.5172,42.552 100,43.5C 101.485,39.5505 102.651,35.5505 103.5,31.5 Z"/></g>
<g><path style="opacity:1" fill="#31670f" d="M 146.5,26.5 C 146.5,27.1667 146.833,27.5 147.5,27.5C 140.141,38.5178 132.807,49.5178 125.5,60.5C 124.508,60.6716 123.842,60.3382 123.5,59.5C 131.426,48.6373 139.092,37.6373 146.5,26.5 Z"/></g>
<g><path style="opacity:1" fill="#3b7516" d="M 99.5,27.5 C 99.0925,32.5368 98.4258,37.5368 97.5,42.5C 96.3882,44.5994 95.7215,46.9327 95.5,49.5C 95.1667,49.5 94.8333,49.5 94.5,49.5C 94.8333,46.8333 95.1667,44.1667 95.5,41.5C 96.5197,36.7561 97.8531,32.0894 99.5,27.5 Z"/></g>
<g><path style="opacity:1" fill="#82b859" d="M 139.5,17.5 C 134.201,27.8136 128.867,38.1469 123.5,48.5C 121.023,52.1008 118.523,55.7674 116,59.5C 116.236,56.3538 117.069,53.3538 118.5,50.5C 122.575,45.3628 125.908,39.6962 128.5,33.5C 131.409,28.6857 134.075,23.6857 136.5,18.5C 137.053,16.4482 138.053,16.1148 139.5,17.5 Z"/></g>
<g><path style="opacity:1" fill="#275b08" d="M 139.5,17.5 C 140.167,18.1667 140.833,18.8333 141.5,19.5C 136.488,28.1941 131.488,36.8608 126.5,45.5C 125.728,46.6935 124.728,47.6935 123.5,48.5C 128.867,38.1469 134.201,27.8136 139.5,17.5 Z"/></g>
<g><path style="opacity:1" fill="#7fba51" d="M 93.5,18.5 C 94.4916,18.3284 95.1583,18.6618 95.5,19.5C 95.5,22.1667 95.5,24.8333 95.5,27.5C 93.5894,32.5719 92.7561,37.9052 93,43.5C 93.4643,42.9056 93.631,42.2389 93.5,41.5C 94.3957,40.4937 95.0623,40.4937 95.5,41.5C 95.1667,44.1667 94.8333,46.8333 94.5,49.5C 93.8333,50.1667 93.1667,50.8333 92.5,51.5C 92.5869,43.678 91.7536,43.678 90,51.5C 89.4213,47.7973 89.588,44.1306 90.5,40.5C 91.5,33.1666 92.5,25.8332 93.5,18.5 Z"/></g>
<g><path style="opacity:1" fill="#3c7215" d="M 127.5,32.5 C 127.5,33.1667 127.833,33.5 128.5,33.5C 125.908,39.6962 122.575,45.3628 118.5,50.5C 119.167,48.5 119.833,46.5 120.5,44.5C 122.467,40.2367 124.801,36.2367 127.5,32.5 Z"/></g>
<g><path style="opacity:1" fill="#83b85a" d="M 141.5,19.5 C 144.248,19.4017 144.914,20.4017 143.5,22.5C 137.931,30.6273 132.598,38.9607 127.5,47.5C 126.662,47.1583 126.328,46.4916 126.5,45.5C 131.488,36.8608 136.488,28.1941 141.5,19.5 Z"/></g>
<g><path style="opacity:1" fill="#89bd5d" d="M 155.5,28.5 C 151.108,34.228 147.108,40.228 143.5,46.5C 142.504,46.4142 141.671,46.7476 141,47.5C 137.96,52.2695 134.46,56.6028 130.5,60.5C 130.5,60.1667 130.5,59.8333 130.5,59.5C 130.5,58.8333 130.5,58.1667 130.5,57.5C 136.183,51.1464 141.516,44.4797 146.5,37.5C 148.565,33.4344 151.565,30.4344 155.5,28.5 Z"/></g>
<g><path style="opacity:1" fill="#83b757" d="M 163.5,36.5 C 156.5,43.8333 149.5,51.1667 142.5,58.5C 139.87,60.6281 137.37,62.9614 135,65.5C 134.333,64.8333 134.333,64.1667 135,63.5C 136.707,61.9625 138.207,60.2959 139.5,58.5C 146.5,50.5 153.5,42.5 160.5,34.5C 162.332,33.2819 163.332,33.9486 163.5,36.5 Z"/></g>
<g><path style="opacity:1" fill="#225205" d="M 163.5,36.5 C 163.5,36.8333 163.5,37.1667 163.5,37.5C 157.224,45.445 150.224,52.7784 142.5,59.5C 142.5,59.1667 142.5,58.8333 142.5,58.5C 149.5,51.1667 156.5,43.8333 163.5,36.5 Z"/></g>
<g><path style="opacity:1" fill="#6eab42" d="M 111.5,37.5 C 110.85,39.4352 110.517,41.4352 110.5,43.5C 109.124,48.1291 107.624,52.7957 106,57.5C 105.308,56.9747 104.808,56.3081 104.5,55.5C 105.485,53.9017 105.651,52.235 105,50.5C 104.444,52.5951 103.944,52.7618 103.5,51C 104.233,48.2804 105.233,45.7804 106.5,43.5C 107.892,41.7274 109.059,39.7274 110,37.5C 110.69,36.2617 111.19,36.2617 111.5,37.5 Z"/></g>
<g><path style="opacity:1" fill="#316b0b" d="M 95.5,27.5 C 95.2651,32.241 94.5984,36.9077 93.5,41.5C 93.631,42.2389 93.4643,42.9056 93,43.5C 92.7561,37.9052 93.5894,32.5719 95.5,27.5 Z"/></g>
<g><path style="opacity:1" fill="#2a5b0b" d="M 159.5,33.5 C 159.5,34.1667 159.833,34.5 160.5,34.5C 153.5,42.5 146.5,50.5 139.5,58.5C 138.833,58.5 138.5,58.1667 138.5,57.5C 138.5,57.1667 138.5,56.8333 138.5,56.5C 145.283,48.5706 152.283,40.9039 159.5,33.5 Z"/></g>
<g><path style="opacity:1" fill="#376e10" d="M 125.5,27.5 C 125.5,28.1667 125.833,28.5 126.5,28.5C 123.896,33.3752 121.562,38.3752 119.5,43.5C 117.929,45.6351 116.596,47.9684 115.5,50.5C 114.957,50.44 114.624,50.1067 114.5,49.5C 115.18,48.1401 115.847,46.8068 116.5,45.5C 119.005,39.1557 122.005,33.1557 125.5,27.5 Z"/></g>
<g><path style="opacity:1" fill="#25540c" d="M 155.5,28.5 C 156.74,29.6588 158.074,30.6588 159.5,31.5C 158.448,31.3505 157.448,31.5172 156.5,32C 152.288,36.7068 148.288,41.5401 144.5,46.5C 144.167,46.5 143.833,46.5 143.5,46.5C 147.108,40.228 151.108,34.228 155.5,28.5 Z"/></g>
<g><path style="opacity:1" fill="#30640f" d="M 146.5,26.5 C 146.719,25.325 146.386,24.325 145.5,23.5C 139.255,32.3197 133.255,41.3197 127.5,50.5C 127.167,50.5 126.833,50.5 126.5,50.5C 126.557,49.391 126.89,48.391 127.5,47.5C 132.598,38.9607 137.931,30.6273 143.5,22.5C 148.438,21.0973 149.438,22.4306 146.5,26.5 Z"/></g>
<g><path style="opacity:1" fill="#376e12" d="M 145.5,35.5 C 145.328,36.4916 145.662,37.1583 146.5,37.5C 141.516,44.4797 136.183,51.1464 130.5,57.5C 130.5,57.1667 130.5,56.8333 130.5,56.5C 135.144,49.1982 140.144,42.1982 145.5,35.5 Z"/></g>
<g><path style="opacity:1" fill="#84b858" d="M 159.5,31.5 C 159.5,32.1667 159.5,32.8333 159.5,33.5C 152.283,40.9039 145.283,48.5706 138.5,56.5C 137.833,56.5 137.5,56.1667 137.5,55.5C 140.215,52.7861 142.549,49.7861 144.5,46.5C 148.288,41.5401 152.288,36.7068 156.5,32C 157.448,31.5172 158.448,31.3505 159.5,31.5 Z"/></g>
<g><path style="opacity:1" fill="#3f7717" d="M 143.5,46.5 C 143.833,46.5 144.167,46.5 144.5,46.5C 142.549,49.7861 140.215,52.7861 137.5,55.5C 135.031,58.1438 132.698,60.9772 130.5,64C 129.668,64.6877 129.002,64.521 128.5,63.5C 129.612,62.7348 130.279,61.7348 130.5,60.5C 134.46,56.6028 137.96,52.2695 141,47.5C 141.671,46.7476 142.504,46.4142 143.5,46.5 Z"/></g>
<g><path style="opacity:1" fill="#1f4f07" d="M 168.5,44.5 C 168.842,45.3382 169.508,45.6716 170.5,45.5C 166.817,49.1803 162.817,52.5136 158.5,55.5C 158.5,55.1667 158.5,54.8333 158.5,54.5C 161.5,50.8333 164.833,47.5 168.5,44.5 Z"/></g>
<g><path style="opacity:1" fill="#84b85c" d="M 168.5,44.5 C 164.833,47.5 161.5,50.8333 158.5,54.5C 152.831,58.3459 147.497,62.6793 142.5,67.5C 142.167,67.5 141.833,67.5 141.5,67.5C 143.833,64.8333 146.167,62.1667 148.5,59.5C 153.526,54.8053 158.526,50.1387 163.5,45.5C 164.11,44.609 164.443,43.609 164.5,42.5C 166.044,42.2969 167.378,41.6302 168.5,40.5C 171.14,41.873 171.14,43.2064 168.5,44.5 Z"/></g>
<g><path style="opacity:1" fill="#69ab38" d="M 89.5,39.5 C 89.5,40.1667 89.8333,40.5 90.5,40.5C 89.588,44.1306 89.4213,47.7973 90,51.5C 91.7536,43.678 92.5869,43.678 92.5,51.5C 91.0048,51.9887 89.6715,52.6554 88.5,53.5C 84.7272,52.8969 81.0606,52.2302 77.5,51.5C 77.8333,51.5 78.1667,51.5 78.5,51.5C 79.1667,51.5 79.5,51.1667 79.5,50.5C 81.5358,48.7943 82.5358,46.461 82.5,43.5C 82.8333,43.5 83.1667,43.5 83.5,43.5C 83.5,44.8333 84.1667,45.5 85.5,45.5C 85.3284,46.4916 85.6618,47.1583 86.5,47.5C 86.3433,48.8734 86.51,50.2068 87,51.5C 87.9443,47.3908 88.7776,43.3908 89.5,39.5 Z"/></g>
<g><path style="opacity:1" fill="#81b557" d="M 164.5,42.5 C 163.833,42.8333 163.167,43.1667 162.5,43.5C 157.5,48.8333 152.5,54.1667 147.5,59.5C 145.938,59.7329 144.605,60.3995 143.5,61.5C 143.5,60.8333 143.167,60.5 142.5,60.5C 142.5,60.1667 142.5,59.8333 142.5,59.5C 150.224,52.7784 157.224,45.445 163.5,37.5C 165.1,36.488 166.434,36.988 167.5,39C 166.29,40.0391 165.29,41.2058 164.5,42.5 Z"/></g>
<g><path style="opacity:1" fill="#6ea545" d="M 76.5,51.5 C 76.8333,51.5 77.1667,51.5 77.5,51.5C 81.0606,52.2302 84.7272,52.8969 88.5,53.5C 89.7095,53.9321 90.7095,54.5987 91.5,55.5C 91.1667,55.5 90.8333,55.5 90.5,55.5C 80.1348,55.2667 69.8015,55.6 59.5,56.5C 58.6236,56.6309 57.9569,56.2975 57.5,55.5C 59.444,54.1993 61.444,53.1993 63.5,52.5C 67.7685,51.6274 72.1018,51.2941 76.5,51.5 Z"/></g>
<g><path style="opacity:1" fill="#82b959" d="M 151.5,25.5 C 149.89,29.1004 147.89,32.4338 145.5,35.5C 140.144,42.1982 135.144,49.1982 130.5,56.5C 129.017,58.0938 127.517,59.7605 126,61.5C 125.601,61.2716 125.435,60.9382 125.5,60.5C 132.807,49.5178 140.141,38.5178 147.5,27.5C 148.267,26.828 148.934,25.9947 149.5,25C 150.437,24.3083 151.103,24.475 151.5,25.5 Z"/></g>
<g><path style="opacity:1" fill="#82b658" d="M 175.5,48.5 C 175.649,49.552 175.483,50.552 175,51.5C 169.35,55.3217 164.183,59.6551 159.5,64.5C 156.357,66.2417 153.357,68.2417 150.5,70.5C 150.5,69.8333 150.167,69.5 149.5,69.5C 153.14,66.5271 156.473,63.1938 159.5,59.5C 164.746,56.5892 169.413,52.9225 173.5,48.5C 174.396,47.4937 175.062,47.4937 175.5,48.5 Z"/></g>
<g><path style="opacity:1" fill="#659a40" d="M 63.5,52.5 C 61.444,53.1993 59.444,54.1993 57.5,55.5C 57.9569,56.2975 58.6236,56.6309 59.5,56.5C 47.0124,60.6424 36.0124,67.309 26.5,76.5C 26.6495,75.448 26.4828,74.448 26,73.5C 25.1841,74.8228 24.0174,75.4894 22.5,75.5C 33.3553,62.9037 47.022,55.237 63.5,52.5 Z"/></g>
<g><path style="opacity:1" fill="#2f640c" d="M 162.5,43.5 C 162.328,44.4916 162.662,45.1583 163.5,45.5C 158.526,50.1387 153.526,54.8053 148.5,59.5C 148.167,59.5 147.833,59.5 147.5,59.5C 152.5,54.1667 157.5,48.8333 162.5,43.5 Z"/></g>
<g><path style="opacity:1" fill="#235307" d="M 172.5,47.5 C 172.5,48.1667 172.833,48.5 173.5,48.5C 169.413,52.9225 164.746,56.5892 159.5,59.5C 159.414,58.5041 159.748,57.6708 160.5,57C 164.975,54.3501 168.975,51.1834 172.5,47.5 Z"/></g>
<g><path style="opacity:1" fill="#7cbb4d" d="M 108.5,35.5 C 107.629,38.1123 106.963,40.779 106.5,43.5C 105.233,45.7804 104.233,48.2804 103.5,51C 103.944,52.7618 104.444,52.5951 105,50.5C 105.651,52.235 105.485,53.9017 104.5,55.5C 104.808,56.3081 105.308,56.9747 106,57.5C 107.624,52.7957 109.124,48.1291 110.5,43.5C 110.833,43.5 111.167,43.5 111.5,43.5C 111.5,44.1667 111.833,44.5 112.5,44.5C 112.5,45.5 112.5,46.5 112.5,47.5C 110.21,50.0767 109.044,53.0767 109,56.5C 109.308,55.6919 109.808,55.0253 110.5,54.5C 111.096,55.7161 111.263,57.0494 111,58.5C 113.157,56.1829 114.657,53.5162 115.5,50.5C 116.596,47.9684 117.929,45.6351 119.5,43.5C 119.5,44.1667 119.833,44.5 120.5,44.5C 119.833,46.5 119.167,48.5 118.5,50.5C 117.069,53.3538 116.236,56.3538 116,59.5C 118.523,55.7674 121.023,52.1008 123.5,48.5C 124.728,47.6935 125.728,46.6935 126.5,45.5C 126.328,46.4916 126.662,47.1583 127.5,47.5C 126.89,48.391 126.557,49.391 126.5,50.5C 123.361,54.0902 120.694,58.0902 118.5,62.5C 117.423,63.7051 116.09,64.3718 114.5,64.5C 112.017,61.2586 108.684,59.5919 104.5,59.5C 104.167,59.5 103.833,59.5 103.5,59.5C 100.678,56.2224 97.0115,54.889 92.5,55.5C 92.1667,55.5 91.8333,55.5 91.5,55.5C 90.7095,54.5987 89.7095,53.9321 88.5,53.5C 89.6715,52.6554 91.0048,51.9887 92.5,51.5C 93.1667,50.8333 93.8333,50.1667 94.5,49.5C 94.8333,49.5 95.1667,49.5 95.5,49.5C 94.935,55.032 96.7684,56.032 101,52.5C 102.541,46.7117 104.374,41.045 106.5,35.5C 106.5,35.1667 106.5,34.8333 106.5,34.5C 107.925,32.9689 108.591,33.3023 108.5,35.5 Z"/></g>
<g><path style="opacity:1" fill="#6baa3f" d="M 115.5,43.5 C 115.328,44.4916 115.662,45.1583 116.5,45.5C 115.847,46.8068 115.18,48.1401 114.5,49.5C 114.624,50.1067 114.957,50.44 115.5,50.5C 114.657,53.5162 113.157,56.1829 111,58.5C 111.263,57.0494 111.096,55.7161 110.5,54.5C 109.808,55.0253 109.308,55.6919 109,56.5C 109.044,53.0767 110.21,50.0767 112.5,47.5C 113.5,46.1667 114.5,44.8333 115.5,43.5 Z"/></g>
<g><path style="opacity:1" fill="#83b858" d="M 172.5,47.5 C 168.975,51.1834 164.975,54.3501 160.5,57C 159.748,57.6708 159.414,58.5041 159.5,59.5C 153.5,63.8333 147.5,68.1667 141.5,72.5C 141.062,72.5654 140.728,72.3988 140.5,72C 141.571,71.1482 142.571,70.3149 143.5,69.5C 148.5,64.8333 153.5,60.1667 158.5,55.5C 162.817,52.5136 166.817,49.1803 170.5,45.5C 171.209,44.596 172.209,44.2627 173.5,44.5C 173.737,45.791 173.404,46.791 172.5,47.5 Z"/></g>
<g><path style="opacity:1" fill="#5d8e39" d="M 104.5,59.5 C 108.684,59.5919 112.017,61.2586 114.5,64.5C 110.948,63.2089 107.614,61.5422 104.5,59.5 Z"/></g>
<g><path style="opacity:1" fill="#4b851e" d="M 147.5,59.5 C 147.833,59.5 148.167,59.5 148.5,59.5C 146.167,62.1667 143.833,64.8333 141.5,67.5C 138.492,69.4479 135.659,71.7813 133,74.5C 132.833,74.1667 132.667,73.8333 132.5,73.5C 136.189,69.4799 139.855,65.4799 143.5,61.5C 144.605,60.3995 145.938,59.7329 147.5,59.5 Z"/></g>
<g><path style="opacity:1" fill="#85b85a" d="M 178.5,52.5 C 179.338,52.8417 179.672,53.5084 179.5,54.5C 172.244,58.762 165.577,63.762 159.5,69.5C 159.167,69.5 158.833,69.5 158.5,69.5C 158.672,68.5084 158.338,67.8417 157.5,67.5C 158.551,66.7777 159.218,65.7777 159.5,64.5C 166.023,60.7419 172.357,56.7419 178.5,52.5 Z"/></g>
<g><path style="opacity:1" fill="#255509" d="M 175.5,48.5 C 176.443,49.8831 177.443,51.2164 178.5,52.5C 172.357,56.7419 166.023,60.7419 159.5,64.5C 164.183,59.6551 169.35,55.3217 175,51.5C 175.483,50.552 175.649,49.552 175.5,48.5 Z"/></g>
<g><path style="opacity:1" fill="#316211" d="M 180.5,59.5 C 181.648,60.1641 182.981,60.3308 184.5,60C 185.774,60.9772 185.774,61.8106 184.5,62.5C 182.565,61.291 180.565,61.4577 178.5,63C 168.93,68.9418 159.597,75.1085 150.5,81.5C 148.95,82.4408 147.284,83.1075 145.5,83.5C 145.5,83.1667 145.5,82.8333 145.5,82.5C 156.959,74.5981 168.625,66.9314 180.5,59.5 Z"/></g>
<g><path style="opacity:1" fill="#619938" d="M 126.5,50.5 C 126.833,50.5 127.167,50.5 127.5,50.5C 125.404,53.2622 123.738,56.2622 122.5,59.5C 119.335,61.7342 119.002,64.0675 121.5,66.5C 122.415,68.7541 123.748,70.7541 125.5,72.5C 121.828,69.8262 118.161,67.1595 114.5,64.5C 116.09,64.3718 117.423,63.7051 118.5,62.5C 120.694,58.0902 123.361,54.0902 126.5,50.5 Z"/></g>
<g><path style="opacity:1" fill="#7fb458" d="M 92.5,55.5 C 97.0115,54.889 100.678,56.2224 103.5,59.5C 101.421,59.0293 99.4214,58.3627 97.5,57.5C 96.791,56.596 95.791,56.2627 94.5,56.5C 94.5,59.1667 94.5,61.8333 94.5,64.5C 93.8333,78.1667 93.1667,91.8333 92.5,105.5C 92.5,88.8333 92.5,72.1667 92.5,55.5 Z"/></g>
<g><path style="opacity:1" fill="#72b440" d="M 130.5,56.5 C 130.5,56.8333 130.5,57.1667 130.5,57.5C 130.5,58.1667 130.5,58.8333 130.5,59.5C 127.885,61.3788 125.719,63.7121 124,66.5C 123.23,65.4019 122.397,65.4019 121.5,66.5C 119.002,64.0675 119.335,61.7342 122.5,59.5C 122.833,59.5 123.167,59.5 123.5,59.5C 123.842,60.3382 124.508,60.6716 125.5,60.5C 125.435,60.9382 125.601,61.2716 126,61.5C 127.517,59.7605 129.017,58.0938 130.5,56.5 Z"/></g>
<g><path style="opacity:1" fill="#28580c" d="M 179.5,54.5 C 180.167,55.1667 180.833,55.8333 181.5,56.5C 174.36,60.5717 167.36,64.9051 160.5,69.5C 160.167,69.5 159.833,69.5 159.5,69.5C 165.577,63.762 172.244,58.762 179.5,54.5 Z"/></g>
<g><path style="opacity:1" fill="#82c051" d="M 137.5,55.5 C 137.5,56.1667 137.833,56.5 138.5,56.5C 138.5,56.8333 138.5,57.1667 138.5,57.5C 133.411,62.5357 129.077,67.5357 125.5,72.5C 123.748,70.7541 122.415,68.7541 121.5,66.5C 122.397,65.4019 123.23,65.4019 124,66.5C 125.719,63.7121 127.885,61.3788 130.5,59.5C 130.5,59.8333 130.5,60.1667 130.5,60.5C 130.279,61.7348 129.612,62.7348 128.5,63.5C 129.002,64.521 129.668,64.6877 130.5,64C 132.698,60.9772 135.031,58.1438 137.5,55.5 Z"/></g>
<g><path style="opacity:1" fill="#86bb5a" d="M 181.5,56.5 C 182.715,57.779 182.382,58.779 180.5,59.5C 168.625,66.9314 156.959,74.5981 145.5,82.5C 144.833,82.5 144.167,82.5 143.5,82.5C 148.987,77.9242 154.653,73.5909 160.5,69.5C 167.36,64.9051 174.36,60.5717 181.5,56.5 Z"/></g>
<g><path style="opacity:1" fill="#3c691d" d="M 90.5,55.5 C 90.8333,55.5 91.1667,55.5 91.5,55.5C 91.8333,55.5 92.1667,55.5 92.5,55.5C 92.5,72.1667 92.5,88.8333 92.5,105.5C 91.791,106.404 90.791,106.737 89.5,106.5C 91.8242,89.6619 92.1575,72.6619 90.5,55.5 Z"/></g>
<g><path style="opacity:1" fill="#609739" d="M 97.5,57.5 C 95.5152,73.1317 94.8486,89.1317 95.5,105.5C 94.5043,92.0102 94.171,78.3435 94.5,64.5C 94.5,61.8333 94.5,59.1667 94.5,56.5C 95.791,56.2627 96.791,56.596 97.5,57.5 Z"/></g>
<g><path style="opacity:1" fill="#85c258" d="M 94.5,64.5 C 94.171,78.3435 94.5043,92.0102 95.5,105.5C 95.8807,106.931 96.8807,107.764 98.5,108C 95.3054,108.181 92.3054,108.681 89.5,109.5C 88.325,109.719 87.325,109.386 86.5,108.5C 87.6016,107.824 88.6016,107.158 89.5,106.5C 90.791,106.737 91.791,106.404 92.5,105.5C 93.1667,91.8333 93.8333,78.1667 94.5,64.5 Z"/></g>
<g><path style="opacity:1" fill="#6ba63b" d="M 138.5,57.5 C 138.5,58.1667 138.833,58.5 139.5,58.5C 138.207,60.2959 136.707,61.9625 135,63.5C 134.333,64.1667 134.333,64.8333 135,65.5C 137.37,62.9614 139.87,60.6281 142.5,58.5C 142.5,58.8333 142.5,59.1667 142.5,59.5C 142.5,59.8333 142.5,60.1667 142.5,60.5C 138.521,65.1456 134.188,69.479 129.5,73.5C 131.005,74.8415 131.672,76.5082 131.5,78.5C 129.167,76.8333 127.167,74.8333 125.5,72.5C 129.077,67.5357 133.411,62.5357 138.5,57.5 Z"/></g>
<g><path style="opacity:1" fill="#3d7514" d="M 158.5,54.5 C 158.5,54.8333 158.5,55.1667 158.5,55.5C 153.5,60.1667 148.5,64.8333 143.5,69.5C 142.662,69.1583 142.328,68.4916 142.5,67.5C 147.497,62.6793 152.831,58.3459 158.5,54.5 Z"/></g>
<g><path style="opacity:1" fill="#2b5a10" d="M 184.5,63.5 C 185.216,63.7831 186.049,64.1164 187,64.5C 187.26,66.6175 188.26,68.2842 190,69.5C 190.528,70.816 190.028,71.4827 188.5,71.5C 187.796,69.6558 186.463,69.1558 184.5,70C 174.43,76.0344 164.097,81.5344 153.5,86.5C 155.112,84.7622 157.445,83.0955 160.5,81.5C 169.466,77.0171 178.133,72.0171 186.5,66.5C 185.635,65.4173 184.635,65.2506 183.5,66C 175.604,70.4474 167.604,74.6141 159.5,78.5C 165.928,73.7755 172.595,69.2755 179.5,65C 181.025,63.9914 182.692,63.4914 184.5,63.5 Z"/></g>
<g><path style="opacity:1" fill="#80bd4f" d="M 142.5,60.5 C 143.167,60.5 143.5,60.8333 143.5,61.5C 139.855,65.4799 136.189,69.4799 132.5,73.5C 132.667,73.8333 132.833,74.1667 133,74.5C 135.659,71.7813 138.492,69.4479 141.5,67.5C 141.833,67.5 142.167,67.5 142.5,67.5C 142.328,68.4916 142.662,69.1583 143.5,69.5C 142.571,70.3149 141.571,71.1482 140.5,72C 140.728,72.3988 141.062,72.5654 141.5,72.5C 140.375,74.1288 139.041,75.6288 137.5,77C 137.833,77.1667 138.167,77.3333 138.5,77.5C 142.185,74.8086 145.852,72.1419 149.5,69.5C 150.167,69.5 150.5,69.8333 150.5,70.5C 146.375,73.4526 142.375,76.6193 138.5,80C 138.833,80.1667 139.167,80.3333 139.5,80.5C 145.518,76.1418 151.518,71.8085 157.5,67.5C 158.338,67.8417 158.672,68.5084 158.5,69.5C 152.656,73.8362 146.656,78.0029 140.5,82C 139.304,82.6543 139.304,83.1543 140.5,83.5C 141.417,82.8728 142.417,82.5394 143.5,82.5C 144.167,82.5 144.833,82.5 145.5,82.5C 145.5,82.8333 145.5,83.1667 145.5,83.5C 144.599,85.7271 142.933,86.7271 140.5,86.5C 138.646,85.759 136.979,84.759 135.5,83.5C 133.937,82.0552 132.604,80.3885 131.5,78.5C 131.672,76.5082 131.005,74.8415 129.5,73.5C 134.188,69.479 138.521,65.1456 142.5,60.5 Z"/></g>
<g><path style="opacity:1" fill="#49821d" d="M 159.5,59.5 C 156.473,63.1938 153.14,66.5271 149.5,69.5C 145.852,72.1419 142.185,74.8086 138.5,77.5C 138.167,77.3333 137.833,77.1667 137.5,77C 139.041,75.6288 140.375,74.1288 141.5,72.5C 147.5,68.1667 153.5,63.8333 159.5,59.5 Z"/></g>
<g><path style="opacity:1" fill="#84ba5a" d="M 184.5,62.5 C 184.5,62.8333 184.5,63.1667 184.5,63.5C 182.692,63.4914 181.025,63.9914 179.5,65C 172.595,69.2755 165.928,73.7755 159.5,78.5C 156.605,79.3994 153.938,80.7328 151.5,82.5C 151.5,81.8333 151.167,81.5 150.5,81.5C 159.597,75.1085 168.93,68.9418 178.5,63C 180.565,61.4577 182.565,61.291 184.5,62.5 Z"/></g>
<g><path style="opacity:1" fill="#82b758" d="M 160.5,81.5 C 160.082,80.7784 159.416,80.2784 158.5,80C 159.056,79.6174 159.389,79.1174 159.5,78.5C 167.604,74.6141 175.604,70.4474 183.5,66C 184.635,65.2506 185.635,65.4173 186.5,66.5C 178.133,72.0171 169.466,77.0171 160.5,81.5 Z"/></g>
<g><path style="opacity:1" fill="#85b95c" d="M 188.5,71.5 C 177.86,76.8201 167.193,82.1534 156.5,87.5C 155.609,88.1098 154.609,88.4431 153.5,88.5C 153.5,88.1667 153.5,87.8333 153.5,87.5C 153.5,87.1667 153.5,86.8333 153.5,86.5C 164.097,81.5344 174.43,76.0344 184.5,70C 186.463,69.1558 187.796,69.6558 188.5,71.5 Z"/></g>
<g><path style="opacity:1" fill="#7db451" d="M 191.5,73.5 C 191.5,74.1667 191.5,74.8333 191.5,75.5C 182.269,79.1149 173.269,83.2816 164.5,88C 165.094,88.4643 165.761,88.631 166.5,88.5C 166.5,89.1667 166.5,89.8333 166.5,90.5C 164.167,91.8333 161.833,93.1667 159.5,94.5C 156.991,95.9213 154.657,97.5879 152.5,99.5C 152.167,100.167 151.833,100.833 151.5,101.5C 151.44,102.043 151.107,102.376 150.5,102.5C 149.289,101.726 149.289,100.893 150.5,100C 149.833,99.6667 149.167,99.3333 148.5,99C 151.371,97.0655 154.371,95.3988 157.5,94C 156.906,93.5357 156.239,93.369 155.5,93.5C 157.51,90.9725 160.177,89.1392 163.5,88C 162.552,87.5172 161.552,87.3505 160.5,87.5C 169.408,83.0459 178.408,78.5459 187.5,74C 188.793,73.51 190.127,73.3433 191.5,73.5 Z"/></g>
<g><path style="opacity:1" fill="#4e8820" d="M 158.5,69.5 C 158.833,69.5 159.167,69.5 159.5,69.5C 159.833,69.5 160.167,69.5 160.5,69.5C 154.653,73.5909 148.987,77.9242 143.5,82.5C 142.417,82.5394 141.417,82.8728 140.5,83.5C 139.304,83.1543 139.304,82.6543 140.5,82C 146.656,78.0029 152.656,73.8362 158.5,69.5 Z"/></g>
<g><path style="opacity:1" fill="#4f8a21" d="M 159.5,64.5 C 159.218,65.7777 158.551,66.7777 157.5,67.5C 151.518,71.8085 145.518,76.1418 139.5,80.5C 139.167,80.3333 138.833,80.1667 138.5,80C 142.375,76.6193 146.375,73.4526 150.5,70.5C 153.357,68.2417 156.357,66.2417 159.5,64.5 Z"/></g>
<g><path style="opacity:1" fill="#6a9f43" d="M 26.5,76.5 C 22.4283,80.565 18.7617,84.8983 15.5,89.5C 14.1667,87.8333 14.1667,86.1667 15.5,84.5C 16.6936,80.6367 19.027,77.6367 22.5,75.5C 24.0174,75.4894 25.1841,74.8228 26,73.5C 26.4828,74.448 26.6495,75.448 26.5,76.5 Z"/></g>
<g><path style="opacity:1" fill="#2c600a" d="M 188.5,71.5 C 189.5,72.1667 190.5,72.8333 191.5,73.5C 190.127,73.3433 188.793,73.51 187.5,74C 178.408,78.5459 169.408,83.0459 160.5,87.5C 158.965,88.3543 157.632,88.3543 156.5,87.5C 167.193,82.1534 177.86,76.8201 188.5,71.5 Z"/></g>
<g><path style="opacity:1" fill="#6aa53c" d="M 159.5,78.5 C 159.389,79.1174 159.056,79.6174 158.5,80C 159.416,80.2784 160.082,80.7784 160.5,81.5C 157.445,83.0955 155.112,84.7622 153.5,86.5C 153.5,86.8333 153.5,87.1667 153.5,87.5C 150.838,88.7374 148.171,89.5707 145.5,90C 150.97,86.9082 150.637,85.9082 144.5,87C 146.862,85.4894 149.195,83.9894 151.5,82.5C 153.938,80.7328 156.605,79.3994 159.5,78.5 Z"/></g>
<g><path style="opacity:1" fill="#27580b" d="M 191.5,75.5 C 192.476,76.8149 193.476,78.1482 194.5,79.5C 194.043,80.2975 193.376,80.6309 192.5,80.5C 191.796,78.6558 190.463,78.1558 188.5,79C 181.096,82.0764 173.763,85.2431 166.5,88.5C 165.761,88.631 165.094,88.4643 164.5,88C 173.269,83.2816 182.269,79.1149 191.5,75.5 Z"/></g>
<g><path style="opacity:1" fill="#89be60" d="M 192.5,80.5 C 191.609,81.1098 190.609,81.4431 189.5,81.5C 181.754,84.304 174.088,87.304 166.5,90.5C 166.5,89.8333 166.5,89.1667 166.5,88.5C 173.763,85.2431 181.096,82.0764 188.5,79C 190.463,78.1558 191.796,78.6558 192.5,80.5 Z"/></g>
<g><path style="opacity:1" fill="#83b658" d="M 192.5,85.5 C 186.601,87.4331 180.934,89.7665 175.5,92.5C 167.758,94.535 160.091,96.8683 152.5,99.5C 154.657,97.5879 156.991,95.9213 159.5,94.5C 169.647,91.2289 179.647,87.5623 189.5,83.5C 191.297,82.2702 193.297,81.6036 195.5,81.5C 195.912,83.9726 194.912,85.3059 192.5,85.5 Z"/></g>
<g><path style="opacity:1" fill="#285b09" d="M 189.5,81.5 C 189.5,82.1667 189.5,82.8333 189.5,83.5C 179.647,87.5623 169.647,91.2289 159.5,94.5C 161.833,93.1667 164.167,91.8333 166.5,90.5C 174.088,87.304 181.754,84.304 189.5,81.5 Z"/></g>
<g><path style="opacity:1" fill="#588933" d="M 135.5,83.5 C 136.979,84.759 138.646,85.759 140.5,86.5C 141.898,90.5323 143.231,94.5323 144.5,98.5C 141.766,93.37 138.766,88.37 135.5,83.5 Z"/></g>
<g><path style="opacity:1" fill="#6fab3f" d="M 156.5,87.5 C 157.632,88.3543 158.965,88.3543 160.5,87.5C 161.552,87.3505 162.552,87.5172 163.5,88C 160.177,89.1392 157.51,90.9725 155.5,93.5C 144.169,97.6156 143.836,96.9489 154.5,91.5C 152.671,90.7122 151.004,91.2122 149.5,93C 148.167,93.6667 146.833,93.6667 145.5,93C 148.391,91.7258 151.058,90.2258 153.5,88.5C 154.609,88.4431 155.609,88.1098 156.5,87.5 Z"/></g>
<g><path style="opacity:1" fill="#26550d" d="M 192.5,85.5 C 193.542,86.7911 194.708,86.7911 196,85.5C 197.63,86.8179 197.797,88.1512 196.5,89.5C 196.209,88.3509 195.376,87.6842 194,87.5C 187.777,89.0967 181.611,90.7633 175.5,92.5C 180.934,89.7665 186.601,87.4331 192.5,85.5 Z"/></g>
<g><path style="opacity:1" fill="#84c452" d="M 150.5,81.5 C 151.167,81.5 151.5,81.8333 151.5,82.5C 149.195,83.9894 146.862,85.4894 144.5,87C 150.637,85.9082 150.97,86.9082 145.5,90C 148.171,89.5707 150.838,88.7374 153.5,87.5C 153.5,87.8333 153.5,88.1667 153.5,88.5C 151.058,90.2258 148.391,91.7258 145.5,93C 146.833,93.6667 148.167,93.6667 149.5,93C 151.004,91.2122 152.671,90.7122 154.5,91.5C 143.836,96.9489 144.169,97.6156 155.5,93.5C 156.239,93.369 156.906,93.5357 157.5,94C 154.371,95.3988 151.371,97.0655 148.5,99C 149.167,99.3333 149.833,99.6667 150.5,100C 149.289,100.893 149.289,101.726 150.5,102.5C 151.107,102.376 151.44,102.043 151.5,101.5C 153.833,100.833 156.167,100.167 158.5,99.5C 159.167,99.5 159.5,99.8333 159.5,100.5C 156.976,101.74 154.309,102.907 151.5,104C 155.129,104.957 154.796,105.791 150.5,106.5C 149.558,106.392 148.725,106.059 148,105.5C 147.564,102.602 146.397,100.269 144.5,98.5C 143.231,94.5323 141.898,90.5323 140.5,86.5C 142.933,86.7271 144.599,85.7271 145.5,83.5C 147.284,83.1075 148.95,82.4408 150.5,81.5 Z"/></g>
<g><path style="opacity:1" fill="#84bb59" d="M 196.5,89.5 C 196.167,89.5 195.833,89.5 195.5,89.5C 186.032,92.1004 176.699,95.1004 167.5,98.5C 164.933,99.475 162.267,100.142 159.5,100.5C 159.5,99.8333 159.167,99.5 158.5,99.5C 164.247,97.362 169.914,95.0287 175.5,92.5C 181.611,90.7633 187.777,89.0967 194,87.5C 195.376,87.6842 196.209,88.3509 196.5,89.5 Z"/></g>
<g><path style="opacity:1" fill="#62973d" d="M 15.5,84.5 C 14.1667,86.1667 14.1667,87.8333 15.5,89.5C 10.3326,100.331 6.9993,111.665 5.5,123.5C 6.08031,119.351 5.41365,115.684 3.5,112.5C 5.00271,101.96 9.00271,92.6264 15.5,84.5 Z"/></g>
<g><path style="opacity:1" fill="#255809" d="M 195.5,89.5 C 196.209,90.404 197.209,90.7373 198.5,90.5C 198.5,90.8333 198.5,91.1667 198.5,91.5C 188.055,93.7599 177.722,96.4266 167.5,99.5C 167.5,99.1667 167.5,98.8333 167.5,98.5C 176.699,95.1004 186.032,92.1004 195.5,89.5 Z"/></g>
<g><path style="opacity:1" fill="#7bab4f" d="M 198.5,91.5 C 198.5,92.5 198.5,93.5 198.5,94.5C 189.543,96.9893 180.543,99.3226 171.5,101.5C 169.143,101.663 166.81,101.497 164.5,101C 165.737,100.768 166.737,100.268 167.5,99.5C 177.722,96.4266 188.055,93.7599 198.5,91.5 Z"/></g>
<g><path style="opacity:1" fill="#407b19" d="M 175.5,92.5 C 169.914,95.0287 164.247,97.362 158.5,99.5C 156.167,100.167 153.833,100.833 151.5,101.5C 151.833,100.833 152.167,100.167 152.5,99.5C 160.091,96.8683 167.758,94.535 175.5,92.5 Z"/></g>
<g><path style="opacity:1" fill="#699c40" d="M 144.5,98.5 C 146.397,100.269 147.564,102.602 148,105.5C 148.725,106.059 149.558,106.392 150.5,106.5C 154.796,105.791 155.129,104.957 151.5,104C 154.309,102.907 156.976,101.74 159.5,100.5C 162.267,100.142 164.933,99.475 167.5,98.5C 167.5,98.8333 167.5,99.1667 167.5,99.5C 166.737,100.268 165.737,100.768 164.5,101C 166.81,101.497 169.143,101.663 171.5,101.5C 165.356,103.719 159.022,105.719 152.5,107.5C 151.943,109.718 151.943,112.051 152.5,114.5C 150.114,107.604 149.114,107.937 149.5,115.5C 147.668,109.992 146.001,104.325 144.5,98.5 Z"/></g>
<g><path style="opacity:1" fill="#61923a" d="M 30.5,115.5 C 28.321,115.16 26.4877,114.16 25,112.5C 25.0579,114.435 25.8912,116.102 27.5,117.5C 21.9936,115.046 19.6603,110.713 20.5,104.5C 21.5,104.5 22.5,104.5 23.5,104.5C 24.087,109.354 26.4203,113.021 30.5,115.5 Z"/></g>
<g><path style="opacity:1" fill="#5f913c" d="M 40.5,118.5 C 37.7967,116.89 34.7967,115.89 31.5,115.5C 39.9439,116.451 44.9439,112.784 46.5,104.5C 47.5,104.5 48.5,104.5 49.5,104.5C 50.1376,111.671 47.1376,116.338 40.5,118.5 Z"/></g>
<g><path style="opacity:1" fill="#78a94f" d="M 107.5,117.5 C 106.417,117.461 105.417,117.127 104.5,116.5C 103.702,116.957 103.369,117.624 103.5,118.5C 101.16,117.914 98.9935,116.914 97,115.5C 94.6457,115.892 92.1457,115.892 89.5,115.5C 87.901,115.768 86.5676,115.434 85.5,114.5C 86.3149,113.163 87.4815,112.163 89,111.5C 92.3333,112.833 95.6667,112.833 99,111.5C 102.27,112.945 105.103,114.945 107.5,117.5 Z"/></g>
<g><path style="opacity:1" fill="#78ab4e" d="M 95.5,105.5 C 99.9155,105.861 103.915,107.194 107.5,109.5C 109.077,111.584 110.91,113.584 113,115.5C 113.528,116.816 113.028,117.483 111.5,117.5C 105.604,111.088 98.2705,108.422 89.5,109.5C 92.3054,108.681 95.3054,108.181 98.5,108C 96.8807,107.764 95.8807,106.931 95.5,105.5 Z"/></g>
<g><path style="opacity:1" fill="#76ac4f" d="M 30.5,115.5 C 30.8333,115.5 31.1667,115.5 31.5,115.5C 34.7967,115.89 37.7967,116.89 40.5,118.5C 38.866,119.161 37.0326,119.494 35,119.5C 32.1345,119.7 29.6345,119.033 27.5,117.5C 25.8912,116.102 25.0579,114.435 25,112.5C 26.4877,114.16 28.321,115.16 30.5,115.5 Z"/></g>
<g><path style="opacity:1" fill="#75a74b" d="M 85.5,114.5 C 86.5676,115.434 87.901,115.768 89.5,115.5C 84.9345,117.727 81.2678,121.06 78.5,125.5C 77.8826,125.611 77.3826,125.944 77,126.5C 76.8253,130.211 76.3253,133.878 75.5,137.5C 74.4312,132.844 74.4312,128.178 75.5,123.5C 77.8916,118.736 81.2249,115.736 85.5,114.5 Z"/></g>
<g><path style="opacity:1" fill="#8ac15b" d="M 152.5,114.5 C 152.5,114.833 152.5,115.167 152.5,115.5C 152.962,123.008 152.462,130.342 151,137.5C 150.829,130.321 150.329,123.321 149.5,116.5C 149.5,116.167 149.5,115.833 149.5,115.5C 149.114,107.937 150.114,107.604 152.5,114.5 Z"/></g>
<g><path style="opacity:1" fill="#79ac4f" d="M 107.5,117.5 C 110.051,119.578 111.884,122.244 113,125.5C 113.233,129.585 113.733,133.585 114.5,137.5C 112.986,139.364 111.653,141.364 110.5,143.5C 109.624,143.631 108.957,143.298 108.5,142.5C 109.946,140.382 110.613,138.049 110.5,135.5C 110.677,128.673 108.343,123.006 103.5,118.5C 103.369,117.624 103.702,116.957 104.5,116.5C 105.417,117.127 106.417,117.461 107.5,117.5 Z"/></g>
<g><path style="opacity:1" fill="#6da348" d="M 89.5,106.5 C 88.6016,107.158 87.6016,107.824 86.5,108.5C 87.325,109.386 88.325,109.719 89.5,109.5C 86.4242,110.517 83.0909,112.017 79.5,114C 75.9494,117.601 73.2827,121.768 71.5,126.5C 70.8337,130.021 70.1671,133.687 69.5,137.5C 68.5091,133.555 68.1758,129.555 68.5,125.5C 70.1696,117.355 74.8363,111.522 82.5,108C 84.74,107.023 87.0733,106.523 89.5,106.5 Z"/></g>
<g><path style="opacity:1" fill="#7dba4e" d="M 3.5,112.5 C 5.41365,115.684 6.08031,119.351 5.5,123.5C 5.5,126.167 5.5,128.833 5.5,131.5C 5.66018,133.199 5.49351,134.866 5,136.5C 4.66667,136.167 4.33333,135.833 4,135.5C 3.50042,128.842 3.33375,122.175 3.5,115.5C 3.5,114.5 3.5,113.5 3.5,112.5 Z"/></g>
<g><path style="opacity:1" fill="#70a447" d="M 107.5,109.5 C 112.172,112.006 115.672,115.673 118,120.5C 121.553,129.203 121.053,137.536 116.5,145.5C 115.425,146.562 114.425,146.562 113.5,145.5C 114.127,144.583 114.461,143.583 114.5,142.5C 115.071,140.64 115.071,138.973 114.5,137.5C 117.495,130.694 116.495,124.027 111.5,117.5C 113.028,117.483 113.528,116.816 113,115.5C 110.91,113.584 109.077,111.584 107.5,109.5 Z"/></g>
<g><path style="opacity:1" fill="#689f44" d="M 3.5,115.5 C 3.33375,122.175 3.50042,128.842 4,135.5C 4.33333,135.833 4.66667,136.167 5,136.5C 5.49351,134.866 5.66018,133.199 5.5,131.5C 6.59315,139.604 8.59315,147.604 11.5,155.5C 11.3573,157.262 11.6906,158.929 12.5,160.5C 12.0431,161.298 11.3764,161.631 10.5,161.5C 6.33565,154.843 3.83565,147.509 3,139.5C 2.17721,131.323 2.34387,123.323 3.5,115.5 Z"/></g>
<g><path style="opacity:1" fill="#5b8e36" d="M 68.5,125.5 C 68.1758,129.555 68.5091,133.555 69.5,137.5C 70.1671,133.687 70.8337,130.021 71.5,126.5C 71.7114,130.345 71.8781,134.345 72,138.5C 73.122,140.407 73.9553,142.407 74.5,144.5C 73.6236,144.369 72.9569,144.702 72.5,145.5C 73.8037,148.13 75.4704,150.463 77.5,152.5C 73.5289,150.281 70.6956,146.948 69,142.5C 67.2969,136.739 67.1302,131.072 68.5,125.5 Z"/></g>
<g><path style="opacity:1" fill="#568533" d="M 75.5,123.5 C 74.4312,128.178 74.4312,132.844 75.5,137.5C 76.3253,133.878 76.8253,130.211 77,126.5C 77.3826,125.944 77.8826,125.611 78.5,125.5C 77.2376,130.152 77.2376,134.819 78.5,139.5C 77.1054,137.946 76.4387,138.279 76.5,140.5C 76.8457,141.849 77.179,143.183 77.5,144.5C 75.3804,142.028 73.7137,139.194 72.5,136C 73.8333,133.333 73.8333,130.667 72.5,128C 73.3994,126.348 74.3994,124.848 75.5,123.5 Z"/></g>
<g><path style="opacity:1" fill="#6b9e43" d="M 152.5,115.5 C 154.135,126.837 153.468,138.17 150.5,149.5C 149.542,149.953 148.708,150.619 148,151.5C 147.699,148.493 147.865,145.493 148.5,142.5C 149.34,133.862 149.673,125.195 149.5,116.5C 150.329,123.321 150.829,130.321 151,137.5C 152.462,130.342 152.962,123.008 152.5,115.5 Z"/></g>
<g><path style="opacity:1" fill="#88b65f" d="M 78.5,139.5 C 79.8333,139.5 80.5,140.167 80.5,141.5C 80.118,144.038 81.4513,145.871 84.5,147C 83.436,148.511 82.1026,148.677 80.5,147.5C 79.609,146.89 78.609,146.557 77.5,146.5C 77.5,145.833 77.5,145.167 77.5,144.5C 77.179,143.183 76.8457,141.849 76.5,140.5C 76.4387,138.279 77.1054,137.946 78.5,139.5 Z"/></g>
<g><path style="opacity:1" fill="#649141" d="M 80.5,141.5 C 82.9929,144.569 85.9929,146.902 89.5,148.5C 85.6266,148.334 84.9599,149.334 87.5,151.5C 84.3855,151.445 82.0522,150.112 80.5,147.5C 82.1026,148.677 83.436,148.511 84.5,147C 81.4513,145.871 80.118,144.038 80.5,141.5 Z"/></g>
<g><path style="opacity:1" fill="#72a54c" d="M 110.5,135.5 C 110.613,138.049 109.946,140.382 108.5,142.5C 108.957,143.298 109.624,143.631 110.5,143.5C 104.391,151.108 96.7246,153.775 87.5,151.5C 84.9599,149.334 85.6266,148.334 89.5,148.5C 92.5184,148.665 95.5184,148.498 98.5,148C 99.4695,146.242 100.636,145.742 102,146.5C 105.334,143.834 108.168,140.168 110.5,135.5 Z"/></g>
<g><path style="opacity:1" fill="#679a43" d="M 114.5,142.5 C 114.461,143.583 114.127,144.583 113.5,145.5C 114.425,146.562 115.425,146.562 116.5,145.5C 113.709,150.955 109.376,154.622 103.5,156.5C 105.129,154.804 104.796,153.804 102.5,153.5C 107.152,150.514 111.152,146.847 114.5,142.5 Z"/></g>
<g><path style="opacity:1" fill="#70a54a" d="M 74.5,144.5 C 75.5,145.167 76.5,145.833 77.5,146.5C 79.8694,150.195 83.2027,152.695 87.5,154C 92.3961,154.274 97.3961,154.107 102.5,153.5C 104.796,153.804 105.129,154.804 103.5,156.5C 98.4388,158.423 93.1055,158.923 87.5,158C 83.6536,156.914 80.3203,155.081 77.5,152.5C 75.4704,150.463 73.8037,148.13 72.5,145.5C 72.9569,144.702 73.6236,144.369 74.5,144.5 Z"/></g>
<g><path style="opacity:1" fill="#71a44b" d="M 29.5,159.5 C 32.0842,159.569 34.0842,160.735 35.5,163C 34.646,164.022 33.646,164.855 32.5,165.5C 28.9104,163.031 24.9104,162.031 20.5,162.5C 19.325,162.719 18.325,162.386 17.5,161.5C 21.2778,159.745 25.2778,159.078 29.5,159.5 Z"/></g>
<g><path style="opacity:1" fill="#608d3e" d="M 148.5,142.5 C 147.865,145.493 147.699,148.493 148,151.5C 148.708,150.619 149.542,149.953 150.5,149.5C 148.484,156.918 145.151,163.584 140.5,169.5C 141.573,167.347 141.573,165.347 140.5,163.5C 143.959,156.789 146.625,149.789 148.5,142.5 Z"/></g>
<g><path style="opacity:1" fill="#5e9337" d="M 11.5,155.5 C 12.8923,157.273 14.059,159.273 15,161.5C 16.1711,160.107 17.6711,159.273 19.5,159C 23.0267,158.192 26.3601,158.359 29.5,159.5C 25.2778,159.078 21.2778,159.745 17.5,161.5C 18.325,162.386 19.325,162.719 20.5,162.5C 18.7706,163.236 17.7706,164.57 17.5,166.5C 16.5041,166.414 15.6708,166.748 15,167.5C 14.5831,166.244 13.7498,165.577 12.5,165.5C 11.3263,164.486 10.6596,163.153 10.5,161.5C 11.3764,161.631 12.0431,161.298 12.5,160.5C 11.6906,158.929 11.3573,157.262 11.5,155.5 Z"/></g>
<g><path style="opacity:1" fill="#6c9b46" d="M 140.5,163.5 C 141.573,165.347 141.573,167.347 140.5,169.5C 137.202,174.132 133.536,178.466 129.5,182.5C 130.028,181.153 130.195,179.819 130,178.5C 129.184,179.823 128.017,180.489 126.5,180.5C 131.197,174.809 135.863,169.142 140.5,163.5 Z"/></g>
<g><path style="opacity:1" fill="#679f41" d="M 12.5,165.5 C 13.7498,165.577 14.5831,166.244 15,167.5C 15.6708,166.748 16.5041,166.414 17.5,166.5C 21.4307,171.77 25.7641,176.77 30.5,181.5C 29.5978,186.482 29.4311,191.482 30,196.5C 29.7996,194.68 28.9663,193.347 27.5,192.5C 26.8386,189.213 26.3386,185.88 26,182.5C 20.144,177.822 15.644,172.155 12.5,165.5 Z"/></g>
<g><path style="opacity:1" fill="#49782a" d="M 126.5,180.5 C 124.687,183.647 122.02,185.647 118.5,186.5C 120.878,184.122 123.545,182.122 126.5,180.5 Z"/></g>
<g><path style="opacity:1" fill="#659940" d="M 30.5,181.5 C 41.2781,189.891 53.2781,195.557 66.5,198.5C 63.1337,198.212 59.8004,198.046 56.5,198C 58.8583,199.276 61.1916,200.442 63.5,201.5C 51.095,199.934 40.2617,194.934 31,186.5C 33.3514,203.685 42.1847,216.352 57.5,224.5C 58.7804,225.931 60.4471,226.598 62.5,226.5C 62.8333,226.5 63.1667,226.5 63.5,226.5C 63.5,227.5 63.5,228.5 63.5,229.5C 61.7839,229.371 60.1172,229.038 58.5,228.5C 41.754,222.083 31.4207,210.083 27.5,192.5C 28.9663,193.347 29.7996,194.68 30,196.5C 29.4311,191.482 29.5978,186.482 30.5,181.5 Z"/></g>
<g><path style="opacity:1" fill="#7fb754" d="M 129.5,182.5 C 127.753,185.534 126.753,188.868 126.5,192.5C 124.146,193.494 123.146,192.494 123.5,189.5C 123.539,187.776 123.206,187.443 122.5,188.5C 121.07,188.421 119.736,188.754 118.5,189.5C 117.913,188.767 117.913,187.767 118.5,186.5C 122.02,185.647 124.687,183.647 126.5,180.5C 128.017,180.489 129.184,179.823 130,178.5C 130.195,179.819 130.028,181.153 129.5,182.5 Z"/></g>
<g><path style="opacity:1" fill="#62923f" d="M 118.5,186.5 C 117.913,187.767 117.913,188.767 118.5,189.5C 119.736,188.754 121.07,188.421 122.5,188.5C 122.5,188.833 122.5,189.167 122.5,189.5C 116.189,192.656 109.855,195.822 103.5,199C 95.6634,201.223 87.6634,202.39 79.5,202.5C 79.5858,201.504 79.2524,200.671 78.5,200C 74.3123,199.824 70.3123,199.324 66.5,198.5C 85.4975,200.972 102.831,196.972 118.5,186.5 Z"/></g>
<g><path style="opacity:1" fill="#7bb254" d="M 66.5,198.5 C 70.3123,199.324 74.3123,199.824 78.5,200C 79.2524,200.671 79.5858,201.504 79.5,202.5C 74.1203,202.676 68.787,202.342 63.5,201.5C 61.1916,200.442 58.8583,199.276 56.5,198C 59.8004,198.046 63.1337,198.212 66.5,198.5 Z"/></g>
<g><path style="opacity:1" fill="#5b8638" d="M 122.5,189.5 C 122.833,189.5 123.167,189.5 123.5,189.5C 123.146,192.494 124.146,193.494 126.5,192.5C 125.496,198.826 123.162,204.492 119.5,209.5C 120.434,207.761 120.434,206.095 119.5,204.5C 117.719,207.091 115.719,209.425 113.5,211.5C 116.084,206.07 118.918,200.736 122,195.5C 122.495,193.527 122.662,191.527 122.5,189.5 Z"/></g>
<g><path style="opacity:1" fill="#72a34e" d="M 119.5,209.5 C 117.547,213.12 114.881,216.12 111.5,218.5C 108.601,219.494 107.934,218.494 109.5,215.5C 110.5,213.833 111.833,212.5 113.5,211.5C 115.719,209.425 117.719,207.091 119.5,204.5C 120.434,206.095 120.434,207.761 119.5,209.5 Z"/></g>
<g><path style="opacity:1" fill="#34621c" d="M 57.5,224.5 C 59.698,224.12 61.3646,224.787 62.5,226.5C 60.4471,226.598 58.7804,225.931 57.5,224.5 Z"/></g>
<g><path style="opacity:1" fill="#5f8b3c" d="M 109.5,215.5 C 107.934,218.494 108.601,219.494 111.5,218.5C 108.333,221.777 104.666,224.61 100.5,227C 99.552,227.483 98.552,227.649 97.5,227.5C 98.0906,226.849 98.7573,226.182 99.5,225.5C 99,225.167 98.5,224.833 98,224.5C 95.0829,226.189 91.9162,227.189 88.5,227.5C 92.5468,225.972 96.5468,224.139 100.5,222C 103.989,220.28 106.989,218.113 109.5,215.5 Z"/></g>
<g><path style="opacity:1" fill="#639040" d="M 63.5,226.5 C 68.7368,227.817 74.0701,228.483 79.5,228.5C 79.6107,229.117 79.944,229.617 80.5,230C 83.146,230.497 85.8127,230.664 88.5,230.5C 87.1225,231.234 85.6225,231.901 84,232.5C 75.9111,232.269 67.7445,231.436 59.5,230C 58.944,229.617 58.6107,229.117 58.5,228.5C 60.1172,229.038 61.7839,229.371 63.5,229.5C 63.5,228.5 63.5,227.5 63.5,226.5 Z"/></g>
<g><path style="opacity:1" fill="#74a74b" d="M 97.5,227.5 C 94.9924,229.554 91.9924,230.554 88.5,230.5C 85.8127,230.664 83.146,230.497 80.5,230C 79.944,229.617 79.6107,229.117 79.5,228.5C 82.2869,227.523 85.2869,227.19 88.5,227.5C 91.9162,227.189 95.0829,226.189 98,224.5C 98.5,224.833 99,225.167 99.5,225.5C 98.7573,226.182 98.0906,226.849 97.5,227.5 Z"/></g>
</svg>
