<?xml version="1.0" encoding="UTF-8"?>
<!DOCTYPE svg PUBLIC "-//W3C//DTD SVG 1.1//EN" "http://www.w3.org/Graphics/SVG/1.1/DTD/svg11.dtd">
<svg xmlns="http://www.w3.org/2000/svg" version="1.1" width="199px" height="235px" style="shape-rendering:geometricPrecision; text-rendering:geometricPrecision; image-rendering:optimizeQuality; fill-rule:evenodd; clip-rule:evenodd" xmlns:xlink="http://www.w3.org/1999/xlink">
<g><path style="opacity:0.999" fill="#fafbf9" d="M 84.5,13.5 C 83.6618,13.8417 83.3284,14.5084 83.5,15.5C 83.8333,18.1667 84.1667,18.1667 84.5,15.5C 84.8333,14.8333 85.1667,14.1667 85.5,13.5C 85.3347,9.81826 85.5014,6.15159 86,2.5C 87.0113,1.66337 88.1779,1.33003 89.5,1.5C 89.7564,3.7925 89.4231,5.95917 88.5,8C 88.8333,8.16667 89.1667,8.33333 89.5,8.5C 90.4656,6.60395 90.7989,4.60395 90.5,2.5C 91.8333,2.5 93.1667,2.5 94.5,2.5C 93.588,6.13059 93.4213,9.79725 94,13.5C 94.7189,9.85457 95.2189,6.18791 95.5,2.5C 96.5,2.5 97.5,2.5 98.5,2.5C 98.2437,6.86181 98.077,11.1951 98,15.5C 98.8816,12.2105 99.5483,8.87718 100,5.5C 100.71,4.02674 101.876,3.36007 103.5,3.5C 103.338,5.5273 103.505,7.5273 104,9.5C 103.734,6.09924 105.234,4.43258 108.5,4.5C 108.275,8.05618 109.108,8.38952 111,5.5C 112.28,5.61348 113.113,6.28014 113.5,7.5C 112.04,10.0289 111.54,12.6956 112,15.5C 112.585,12.3801 113.919,9.71343 116,7.5C 117.301,7.63874 118.134,8.30541 118.5,9.5C 119.688,8.3157 120.855,8.3157 122,9.5C 121.805,11.1261 121.805,12.7928 122,14.5C 125.043,8.2147 126.71,8.54803 127,15.5C 127.589,13.1367 129.089,12.1367 131.5,12.5C 131.351,13.552 131.517,14.552 132,15.5C 133.011,14.6634 134.178,14.33 135.5,14.5C 135.343,15.8734 135.51,17.2068 136,18.5C 136.388,17.572 137.055,16.9054 138,16.5C 139.863,18.1886 142.03,19.5219 144.5,20.5C 144.291,21.086 143.957,21.586 143.5,22C 148.524,21.0384 149.524,22.7051 146.5,27C 148.076,26.8481 149.409,26.0148 150.5,24.5C 153.345,26.8715 156.345,28.8715 159.5,30.5C 159.343,31.8734 159.51,33.2068 160,34.5C 162.557,33.3543 163.89,34.3543 164,37.5C 165.364,36.7417 166.531,37.2417 167.5,39C 166.29,40.0391 165.29,41.2058 164.5,42.5C 166.044,42.2969 167.378,41.6302 168.5,40.5C 171.079,41.8883 171.079,43.3883 168.5,45C 170.107,44.9813 171.774,44.8146 173.5,44.5C 173.67,45.8221 173.337,46.9887 172.5,48C 173.449,48.6172 174.282,48.4506 175,47.5C 176.758,48.4695 177.258,49.6361 176.5,51C 178.616,52.9926 180.616,55.1593 182.5,57.5C 182.023,58.4776 181.357,59.3109 180.5,60C 182.075,59.621 183.575,59.7877 185,60.5C 185,61.8333 185,63.1667 185,64.5C 185.667,63.1667 186.333,63.1667 187,64.5C 187.536,66.8689 188.703,68.8689 190.5,70.5C 187.869,72.0046 188.203,72.6713 191.5,72.5C 191.146,75.4206 192.146,77.7539 194.5,79.5C 192.713,80.316 191.046,81.316 189.5,82.5C 189.667,82.8333 189.833,83.1667 190,83.5C 191.584,82.1387 193.418,81.472 195.5,81.5C 195.863,83.9115 194.863,85.4115 192.5,86C 193.784,86.6838 194.951,86.5171 196,85.5C 198.152,87.2773 197.985,88.7773 195.5,90C 196.448,90.4828 197.448,90.6495 198.5,90.5C 198.5,91.8333 198.5,93.1667 198.5,94.5C 182.369,98.2688 166.703,103.102 151.5,109C 157.962,138.744 150.129,163.911 128,184.5C 124.409,210.754 109.742,226.754 84,232.5C 49.9714,233.152 30.6381,216.485 26,182.5C 4.04791,160.703 -2.95209,134.703 5,104.5C 14.3277,78.5057 32.1611,61.3391 58.5,53C 64.4547,51.9283 70.4547,51.4283 76.5,51.5C 76.5,34.8333 76.5,18.1667 76.5,1.5C 77.5,1.5 78.5,1.5 79.5,1.5C 79.3336,10.1731 79.5002,18.8397 80,27.5C 80.3333,19.1667 80.6667,10.8333 81,2.5C 82.0113,1.66337 83.1779,1.33003 84.5,1.5C 84.5,5.5 84.5,9.5 84.5,13.5 Z M 118.5,9.5 C 118.174,12.3113 117.341,14.978 116,17.5C 115.736,14.4609 116.569,11.7942 118.5,9.5 Z M 164.5,42.5 C 164.539,43.7562 164.039,44.7562 163,45.5C 162.415,44.0024 162.915,43.0024 164.5,42.5 Z M 63.5,55.5 C 72.7506,55.1822 81.9172,55.5155 91,56.5C 91.8329,72.8435 91.6663,89.1769 90.5,105.5C 68.9778,111.881 62.4778,125.548 71,146.5C 81.6848,159.469 94.5181,161.969 109.5,154C 121.372,142.603 123.205,129.77 115,115.5C 109.937,109.385 103.437,106.052 95.5,105.5C 95.5,89.5 95.5,73.5 95.5,57.5C 124.883,66.0538 142.716,85.3871 149,115.5C 152.008,156.469 134.175,183.636 95.5,197C 62.5344,203.339 36.5344,192.839 17.5,165.5C 22.3558,161.654 27.3558,161.654 32.5,165.5C 36.361,163.814 36.361,161.981 32.5,160C 26.3353,157.634 20.502,158.134 15,161.5C -1.91904,124.08 5.58096,92.5804 37.5,67C 45.6588,61.7482 54.3255,57.9148 63.5,55.5 Z M 114.5,137.5 C 114.639,119.808 106.139,111.141 89,111.5C 81.8423,114.654 76.3423,120.154 72.5,128C 73.8333,130.667 73.8333,133.333 72.5,136C 74.0789,139.585 75.7455,143.085 77.5,146.5C 74.9493,144.422 73.116,141.756 72,138.5C 69.6763,125.814 74.343,116.48 86,110.5C 98.8538,107.083 108.52,111.417 115,123.5C 116.329,127.414 116.829,131.248 116.5,135C 116.361,136.301 115.695,137.134 114.5,137.5 Z M 89.5,115.5 C 103.017,115.182 109.85,121.849 110,135.5C 109,137.5 108,139.5 107,141.5C 104.856,144.28 102.023,146.446 98.5,148C 81.8431,148.672 75.3431,140.839 79,124.5C 81.8075,120.513 85.3075,117.513 89.5,115.5 Z M 114.5,137.5 C 114.611,138.117 114.944,138.617 115.5,139C 107.926,154.052 96.5923,158.052 81.5,151C 79.9586,149.629 78.6253,148.129 77.5,146.5C 80.8983,149.533 84.8983,151.533 89.5,152.5C 98.2041,153.497 105.371,150.497 111,143.5C 111.716,141.121 112.883,139.121 114.5,137.5 Z M 122.5,189.5 C 116.641,214.135 100.974,227.135 75.5,228.5C 50.0891,225.586 35.2558,211.586 31,186.5C 44.1824,197.746 59.5157,203.079 77,202.5C 88.7216,203.015 99.8882,200.848 110.5,196C 114.394,193.554 118.394,191.388 122.5,189.5 Z"/></g>
<g><path style="opacity:0.055" fill="#727f6f" d="M 84.5,13.5 C 84.8333,13.5 85.1667,13.5 85.5,13.5C 85.1667,14.1667 84.8333,14.8333 84.5,15.5C 84.1667,15.5 83.8333,15.5 83.5,15.5C 83.3284,14.5084 83.6618,13.8417 84.5,13.5 Z"/></g>
<g><path style="opacity:1" fill="#fafbf9" d="M 20.5,104.5 C 21.5,104.5 22.5,104.5 23.5,104.5C 26.2163,115.378 32.5497,118.212 42.5,113C 44.2687,110.3 45.602,107.466 46.5,104.5C 47.5,104.5 48.5,104.5 49.5,104.5C 48.5838,116.821 41.9171,121.654 29.5,119C 22.5995,116.598 19.5995,111.764 20.5,104.5 Z"/></g>
<g><path style="opacity:1" fill="#fafbf9" d="M 114.5,137.5 C 112.883,139.121 111.716,141.121 111,143.5C 105.371,150.497 98.2041,153.497 89.5,152.5C 84.8983,151.533 80.8983,149.533 77.5,146.5C 75.7455,143.085 74.0789,139.585 72.5,136C 73.8333,133.333 73.8333,130.667 72.5,128C 76.3423,120.154 81.8423,114.654 89,111.5C 106.139,111.141 114.639,119.808 114.5,137.5 Z M 89.5,115.5 C 85.3075,117.513 81.8075,120.513 79,124.5C 75.3431,140.839 81.8431,148.672 98.5,148C 102.023,146.446 104.856,144.28 107,141.5C 108,139.5 109,137.5 110,135.5C 109.85,121.849 103.017,115.182 89.5,115.5 Z"/></g>
</svg>
